<?xml version="1.0" encoding="utf-8"?>
<!-- Generator: Adobe Illustrator 24.1.3, SVG Export Plug-In . SVG Version: 6.00 Build 0)  -->
<svg version="1.1" xmlns="http://www.w3.org/2000/svg" xmlns:xlink="http://www.w3.org/1999/xlink" x="0px" y="0px"
	 viewBox="0 0 90 23" style="enable-background:new 0 0 90 23;" xml:space="preserve">
<style type="text/css">
	.st0{fill:#CF000F;}
	.st1{fill:#FFFFFF;}
</style>
<g id="Layer_2">
</g>
<g id="Layer_1">
	<path class="st0" d="M88.6,21.7c-0.4,0.4-1,0.7-1.6,0.7c-0.6,0-1.2-0.2-1.6-0.7c-0.4-0.4-0.7-1-0.7-1.6s0.2-1.1,0.6-1.6
		c0.4-0.4,1-0.7,1.6-0.7c0.6,0,1.2,0.2,1.6,0.7c0.4,0.4,0.7,1,0.7,1.6S89.1,21.3,88.6,21.7z"/>
	<g>
		<path class="st1" d="M10.5,9.8c0.9,0.3,1.8,0.5,2.6,0.8c0.8,0.3,1.5,0.7,2,1.1c0.6,0.4,1,1,1.3,1.6c0.3,0.6,0.5,1.4,0.5,2.2v0.1
			c0,0.9-0.2,1.8-0.6,2.6c-0.4,0.8-0.9,1.4-1.6,2c-0.7,0.6-1.4,1-2.3,1.3c-0.9,0.3-1.9,0.4-2.9,0.4c-1,0-1.9-0.1-2.8-0.4
			c-0.9-0.2-1.7-0.6-2.5-1c-0.7-0.4-1.4-0.8-1.9-1.3c-0.6-0.5-1-1-1.3-1.6l3.4-2.1c0.4,0.4,0.7,0.8,1.1,1.1c0.4,0.3,0.8,0.6,1.2,0.8
			C7.1,17.7,7.5,17.9,8,18c0.5,0.1,1,0.2,1.6,0.2c0.4,0,0.7,0,1.1-0.1c0.4-0.1,0.7-0.2,1-0.4c0.3-0.2,0.6-0.4,0.8-0.7
			c0.2-0.3,0.3-0.6,0.3-1c0-0.3-0.1-0.5-0.2-0.8s-0.4-0.5-0.7-0.7c-0.3-0.2-0.8-0.5-1.3-0.7c-0.6-0.2-1.3-0.4-2.1-0.7
			c-1-0.3-2-0.5-2.8-0.9c-0.8-0.3-1.5-0.7-2.1-1.2c-0.6-0.5-1-1-1.3-1.6C1.9,8.8,1.7,8.1,1.7,7.2c0-0.9,0.2-1.8,0.5-2.6
			c0.4-0.8,0.9-1.4,1.5-1.9C4.4,2.2,5.1,1.8,6,1.5c0.9-0.3,1.8-0.4,2.8-0.4c1,0,2,0.1,2.8,0.3c0.8,0.2,1.6,0.5,2.2,0.9
			c0.7,0.4,1.2,0.8,1.7,1.2s0.9,0.9,1.2,1.3L13.4,7c-0.8-0.8-1.6-1.3-2.4-1.7C10.3,5,9.5,4.9,8.7,4.9c-0.5,0-0.9,0.1-1.3,0.2
			C7.1,5.2,6.8,5.3,6.5,5.5C6.3,5.7,6.1,5.9,6,6.1C5.9,6.4,5.8,6.6,5.8,6.8c0,0.4,0.1,0.7,0.3,1C6.3,8.1,6.6,8.3,7,8.6
			C7.4,8.8,7.9,9,8.5,9.2C9.1,9.4,9.7,9.6,10.5,9.8z"/>
		<path class="st1" d="M25.5,6.9c1,0,2,0.2,2.9,0.6c0.9,0.4,1.7,0.9,2.4,1.6s1.2,1.5,1.6,2.4c0.4,0.9,0.6,1.9,0.6,2.9
			c0,0.6-0.1,1.1-0.2,1.6l0,0.1h-7.4l-1.9-3h5.5c-0.3-0.8-0.7-1.5-1.3-2c-0.6-0.5-1.4-0.8-2.2-0.8c-0.5,0-1,0.1-1.5,0.3
			c-0.5,0.2-0.9,0.5-1.2,0.9c-0.3,0.4-0.6,0.8-0.8,1.3c-0.2,0.5-0.3,1-0.3,1.6c0,0.4,0.1,0.9,0.3,1.4c0.2,0.5,0.4,0.9,0.8,1.3
			c0.3,0.4,0.7,0.7,1.2,1c0.5,0.3,1,0.4,1.6,0.4c0.5,0,1-0.1,1.4-0.2c0.4-0.1,0.8-0.5,1.2-1l0,0l0.1,0l3.4,1.5l-0.1,0.1
			c-0.7,1-1.6,1.7-2.7,2.3c-1.1,0.5-2.2,0.8-3.4,0.8c-1,0-2-0.2-2.9-0.6c-0.9-0.4-1.7-0.9-2.4-1.6c-0.7-0.7-1.2-1.5-1.6-2.4
			c-0.4-0.9-0.6-1.9-0.6-2.9c0-1,0.2-2,0.6-2.9c0.4-0.9,0.9-1.7,1.6-2.4c0.7-0.7,1.5-1.2,2.4-1.6C23.5,7.1,24.5,6.9,25.5,6.9z"/>
		<path class="st1" d="M34.5,1.4h3.9v3.4h-3.9V1.4z M34.5,21.7V7.2h3.9v14.5H34.5z"/>
		<path class="st1" d="M39.5,21.7l3.9-5.3l3.5,1.6l-2.7,3.7H39.5z M49.5,14.5l5.3,7.2h-4.8v0l-5.3-7.1l-5.3-7.3h4.7l2.9,4.9l3-4.9
			h4.8l-0.1,0L49.5,14.5z"/>
		<path class="st1" d="M69.7,7.2v14.5h-3.8v-7.3c0-0.6-0.1-1.1-0.3-1.6c-0.2-0.5-0.5-0.9-0.9-1.3c-0.4-0.4-0.8-0.7-1.3-0.9
			s-1-0.3-1.6-0.3c-0.6,0-1.1,0.1-1.6,0.3s-0.9,0.5-1.3,0.9s-0.7,0.8-0.9,1.3c-0.2,0.5-0.3,1-0.3,1.6c0,0.5,0.1,1.1,0.3,1.5
			c0.2,0.5,0.5,0.9,0.9,1.3s0.8,0.7,1.3,0.9c0.5,0.2,1,0.3,1.6,0.3c0.6,0,1.1-0.1,1.5-0.3h0v0.1l1.4,2.6l0,0
			c-0.9,0.7-2.1,1.1-3.5,1.1c-1,0-2-0.2-2.9-0.6c-0.9-0.4-1.7-0.9-2.4-1.6c-0.7-0.7-1.2-1.5-1.6-2.4c-0.4-0.9-0.6-1.9-0.6-2.9
			c0-1,0.2-2,0.6-2.9c0.4-0.9,0.9-1.7,1.6-2.4s1.5-1.2,2.4-1.6c0.9-0.4,1.9-0.6,2.9-0.6c1,0,1.9,0.2,2.6,0.6
			c0.8,0.4,1.4,0.9,1.9,1.6v-2H69.7z"/>
		<path class="st1" d="M78,13c0.6,0.2,1.2,0.4,1.8,0.7c0.5,0.2,1,0.5,1.4,0.8s0.7,0.7,0.9,1.1c0.2,0.4,0.3,1,0.3,1.6v0
			c0,1.5-0.5,2.6-1.5,3.5s-2.3,1.2-4.1,1.2c-1.1,0-2.2-0.2-3.2-0.6s-2.1-0.9-3-1.6l0,0l0,0l2-3.1l0,0c0.6,0.6,1.2,1.1,2,1.4
			c0.7,0.3,1.5,0.5,2.3,0.5c1.1,0,1.7-0.4,1.7-1.1c0-0.3-0.2-0.6-0.6-0.8c-0.4-0.2-0.8-0.3-1.3-0.5c-0.1,0-0.2-0.1-0.3-0.1
			s-0.2,0-0.3-0.1c-0.6-0.2-1.2-0.3-1.7-0.5c-0.6-0.2-1.1-0.4-1.6-0.8s-0.8-0.7-1.1-1.2s-0.4-1.1-0.4-1.9v-0.1
			c0-0.7,0.1-1.3,0.4-1.9s0.6-1,1.1-1.4c0.5-0.4,1-0.7,1.7-0.9c0.7-0.2,1.4-0.3,2.2-0.3c0.9,0,1.9,0.1,2.8,0.4
			c0.9,0.3,1.8,0.7,2.6,1.2v0.1l-1.8,3.2l0,0c-0.4-0.4-1-0.8-1.7-1.1c-0.7-0.3-1.4-0.4-2.1-0.4c-0.1,0-0.3,0-0.5,0
			c-0.2,0-0.3,0.1-0.5,0.1c-0.1,0.1-0.3,0.2-0.4,0.3c-0.1,0.1-0.1,0.3-0.1,0.5c0,0.2,0.1,0.3,0.2,0.5c0.2,0.1,0.4,0.3,0.6,0.4
			c0.2,0.1,0.5,0.2,0.8,0.4c0.3,0.1,0.6,0.2,0.9,0.3c0.1,0,0.1,0,0.2,0C77.9,13,77.9,13,78,13z"/>
	</g>
</g>
</svg>
